<svg xmlns="http://www.w3.org/2000/svg" width="200" height="200" viewBox="0 0 200 200" version="1.1"><path d="M 110.403 209.897 C 98.109 210.486, 95.683 210.893, 91.442 213.075 C 87.685 215.009, 86.001 216.701, 84.039 220.512 C 81.703 225.053, 81.500 226.487, 81.500 238.473 C 81.500 250.108, 81.743 251.955, 83.773 255.756 C 85.024 258.097, 87.574 261.013, 89.440 262.236 L 92.833 264.461 88.252 270.980 C 85.733 274.566, 81.484 280.650, 78.810 284.500 L 73.947 291.500 84.579 291.785 C 91.681 291.975, 95.684 291.677, 96.636 290.887 C 97.420 290.237, 101.639 284.628, 106.011 278.424 C 111.591 270.506, 114.637 267.048, 116.230 266.822 C 118.333 266.524, 118.521 265.939, 118.790 258.877 C 119.121 250.160, 118.994 250.039, 109.405 250.014 C 103.015 249.997, 101.466 248.390, 100.558 240.835 C 99.646 233.245, 101.289 227.221, 104.615 225.956 C 105.999 225.430, 118.251 225, 131.843 225 C 161.627 225, 161 224.793, 161 234.608 C 161 241.006, 160.952 241.121, 157.750 242.378 C 155.935 243.091, 152.202 243.469, 149.295 243.234 L 144.091 242.813 143.795 236.657 L 143.500 230.500 134 230.500 L 124.500 230.500 124.236 261.250 L 123.971 292 146.236 291.990 C 167.673 291.981, 168.693 291.891, 173.693 289.563 C 180.256 286.507, 183.083 281.520, 183.783 271.763 C 184.425 262.824, 182.676 256.801, 178.331 252.986 C 176.461 251.344, 174.396 250, 173.742 250 C 173.089 250, 174.007 248.673, 175.782 247.052 C 179.983 243.215, 181 240.317, 181 232.178 C 181 219.740, 177.559 214.042, 168.528 211.526 C 162.410 209.821, 130.589 208.930, 110.403 209.897 M 323.250 224.611 C 322.301 225.033, 322 230.809, 322 248.564 C 322 275.977, 320.309 273.453, 338.248 272.816 C 353.814 272.264, 358.451 269.515, 359.715 260.089 C 360.135 256.958, 359.689 255.145, 357.637 251.644 C 355.153 247.405, 355.098 247.010, 356.512 243.625 C 358.472 238.935, 358.389 236.678, 356.095 232.210 C 352.908 226.001, 349.264 224.566, 336 224.292 C 329.675 224.162, 323.938 224.305, 323.250 224.611 M 367.325 224.778 C 366.138 225.533, 365.559 228.640, 365.844 232.731 C 365.948 234.209, 366.844 235.174, 368.500 235.589 C 370.995 236.216, 371 236.239, 371 248.389 C 371 260.562, 371 260.562, 368 261.694 C 365.375 262.685, 365 263.313, 365 266.713 C 365 268.851, 365.540 271.140, 366.200 271.800 C 367.457 273.057, 385.436 273.537, 388.418 272.393 C 389.526 271.968, 390 270.479, 390 267.419 C 390 263.578, 389.639 262.864, 387 261.500 C 384 259.949, 384 259.949, 384 248.450 C 384 237.281, 384.068 236.925, 386.364 236.052 C 388.932 235.075, 390 233.148, 390 229.490 C 390 225.036, 387.665 223.999, 377.679 224.015 C 372.630 224.024, 367.971 224.367, 367.325 224.778 M 399.250 224.721 C 398.299 225.060, 398 230.733, 398 248.476 C 398 274.042, 397.739 273, 404.148 273 C 410.313 273, 411 271.881, 411 261.828 L 411 252.726 415.957 257.363 C 418.684 259.913, 421.178 262, 421.500 262 C 421.822 262, 424.316 259.913, 427.043 257.363 L 432 252.726 432 261.663 C 432 267.281, 432.446 271.046, 433.200 271.800 C 434.754 273.354, 442.246 273.354, 443.800 271.800 C 445.558 270.042, 445.511 225.048, 443.750 224.882 C 440.837 224.605, 439.367 225.254, 437.132 227.801 C 429.645 236.333, 421.729 243.822, 420.693 243.352 C 420.037 243.054, 416.350 239.243, 412.500 234.882 C 405.442 226.887, 401.548 223.901, 399.250 224.721 M 334.756 238.494 C 334.145 241.693, 336.026 243.220, 340.084 242.818 C 347.049 242.129, 346.070 236, 338.994 236 C 335.779 236, 335.164 236.362, 334.756 238.494 M 334.675 255.404 C 334.379 256.175, 334.383 257.750, 334.685 258.904 C 335.134 260.622, 336.008 261, 339.535 261 C 341.901 261, 344.548 260.727, 345.418 260.393 C 347.290 259.675, 347.494 256.894, 345.800 255.200 C 344.080 253.480, 335.352 253.640, 334.675 255.404 M 144 268 L 144 277 151.777 277 C 162.512 277, 164 275.861, 164 267.643 C 164 264.121, 163.477 260.877, 162.800 260.200 C 162.048 259.448, 158.311 259, 152.800 259 L 144 259 144 268" stroke="none" fill="#2e61f5" fill-rule="evenodd"/><path d="M 433.667 201.667 C 433.300 202.033, 433 203.330, 433 204.547 C 433 207.013, 447.541 206.671, 262.823 208.552 L 205.146 209.139 204.823 206.320 C 204.501 203.511, 204.469 203.499, 196.330 203.211 C 186.675 202.869, 186.429 203.159, 187.544 213.567 L 188.241 220.077 196.371 219.788 C 204.324 219.506, 204.507 219.443, 204.805 216.865 C 205.111 214.231, 205.111 214.231, 241.305 213.631 C 261.212 213.302, 312.454 212.761, 355.175 212.430 L 432.851 211.828 433.175 214.664 C 433.500 217.496, 433.512 217.500, 441.750 217.790 L 450 218.081 450 209.540 L 450 201 442.167 201 C 437.858 201, 434.033 201.300, 433.667 201.667 M 438 209.500 C 438 212.833, 438.167 213, 441.500 213 C 444.833 213, 445 212.833, 445 209.500 C 445 206.167, 444.833 206, 441.500 206 C 438.167 206, 438 206.167, 438 209.500 M 192 211.500 C 192 214.917, 192.095 215, 196 215 C 199.905 215, 200 214.917, 200 211.500 C 200 208.083, 199.905 208, 196 208 C 192.095 208, 192 208.083, 192 211.500 M 193.461 225.681 C 192.133 227.010, 191.996 230.261, 192.466 249.305 C 192.861 265.334, 193.351 271.605, 194.255 272.179 C 195.894 273.220, 202.147 273.193, 203.811 272.138 C 204.565 271.660, 205.125 269.437, 205.130 266.904 C 205.143 260.475, 205.788 259, 208.589 259 C 210.448 259, 211.740 260.153, 213.914 263.750 C 218.919 272.036, 220.230 273, 226.496 273 C 230.529 273, 232.222 272.586, 232.640 271.495 C 232.963 270.653, 231.362 267.032, 229.005 263.272 C 225.705 258.008, 225.029 256.222, 225.886 255.027 C 232.925 245.200, 232.618 235.064, 225.091 228.730 C 220.752 225.079, 216.132 224.027, 204.711 224.089 C 197.354 224.129, 194.628 224.515, 193.461 225.681 M 239.571 225.571 C 237.939 227.204, 237.489 231.688, 238.765 233.600 C 239.169 234.205, 240.512 235.234, 241.750 235.885 C 243.888 237.012, 244 237.653, 244 248.816 C 244 260.562, 244 260.562, 241 261.694 C 238.282 262.720, 238 263.247, 238 267.306 C 238 270.469, 238.465 271.965, 239.582 272.393 C 242.564 273.537, 260.543 273.057, 261.800 271.800 C 262.460 271.140, 263 268.851, 263 266.713 C 263 263.313, 262.625 262.685, 260 261.694 C 257 260.562, 257 260.562, 257 248.389 C 257 236.239, 257.005 236.216, 259.500 235.589 C 261.739 235.027, 262 234.453, 262 230.088 C 262 224.147, 261.710 224, 249.990 224 C 243.280 224, 240.763 224.380, 239.571 225.571 M 272.231 224.836 C 271.252 225.457, 271.024 230.994, 271.231 249.071 L 271.500 272.500 277.500 272.500 L 283.500 272.500 283.784 261.750 C 283.940 255.838, 284.366 251, 284.731 251 C 285.096 251, 290.451 255.989, 296.631 262.086 C 304.053 269.408, 308.471 273.056, 309.644 272.830 C 312.388 272.302, 312.949 267.356, 312.722 245.655 C 312.539 228.173, 312.313 225.703, 310.823 224.905 C 308.389 223.603, 301.609 223.791, 300.200 225.200 C 299.419 225.981, 299 230.066, 299 236.897 L 299 247.394 287.157 235.697 C 280.644 229.264, 274.906 224.007, 274.407 224.015 C 273.908 224.024, 272.929 224.393, 272.231 224.836 M 205.607 237.582 C 205.273 238.452, 205 240.215, 205 241.500 C 205 246.028, 205.978 247, 210.536 247 C 215.627 247, 218 245.081, 218 240.964 C 218 237.465, 215.689 236, 210.173 236 C 207.485 236, 206.019 236.508, 205.607 237.582 M 192.750 283.612 C 190.137 285.581, 188.018 287.936, 188.039 288.846 C 188.089 290.969, 196.550 297.232, 198.794 296.806 C 199.804 296.615, 200.629 295.364, 200.816 293.741 L 201.133 291 325.566 291 L 450 291 450 288.500 L 450 286 325.566 286 L 201.133 286 200.816 283.259 C 200.370 279.391, 198.226 279.485, 192.750 283.612" stroke="none" fill="#040404" fill-rule="evenodd"/></svg>